<?xml version="1.0" encoding="utf-8"?>
<!-- Generator: Adobe Illustrator 23.0.1, SVG Export Plug-In . SVG Version: 6.00 Build 0)  -->
<svg version="1.1" id="Layer_1" xmlns="http://www.w3.org/2000/svg" xmlns:xlink="http://www.w3.org/1999/xlink" x="0px" y="0px"
	 viewBox="0 0 32.9 32.9" style="enable-background:new 0 0 32.9 32.9;" xml:space="preserve">
<style type="text/css">
	.st0{fill:#E9BEC4;stroke:#774149;stroke-width:0.5;stroke-miterlimit:10;}
	.st1{fill:#FFFFFF;stroke:#774149;stroke-width:0.5;stroke-miterlimit:10;}
</style>
<title>instagram</title>
<path class="st0" d="M16.5,0.3C7.5,0.3,0.3,7.5,0.3,16.5s7.3,16.2,16.2,16.2s16.2-7.3,16.2-16.2c0,0,0,0,0,0
	C32.7,7.5,25.4,0.3,16.5,0.3z"/>
<path class="st1" d="M23.5,21.3c0,1.2-1,2.2-2.2,2.2h-9.7c-1.2,0-2.2-1-2.2-2.2c0,0,0,0,0,0v-5.7h2.9c-0.1,0.3-0.1,0.5-0.1,0.8
	c0,2.4,2,4.2,4.3,4.2c2.3,0,4.2-1.9,4.2-4.2c0-0.3,0-0.5-0.1-0.8h2.9L23.5,21.3z"/>
<path class="st1" d="M13.8,16.5c0-1.4,1.2-2.6,2.6-2.6c1.4,0,2.6,1.2,2.6,2.6c0,1.4-1.2,2.6-2.6,2.6C15,19.1,13.8,17.9,13.8,16.5z"
	/>
<path class="st1" d="M23.5,14h-3.6c-1.4-1.9-4-2.4-6-1c-0.4,0.3-0.7,0.6-1,1H9.4v-2.4c0-1.2,1-2.2,2.2-2.2c0,0,0,0,0,0h9.7
	c1.2,0,2.2,1,2.2,2.2c0,0,0,0,0,0L23.5,14L23.5,14z"/>
<path class="st0" d="M22,10.6h-1.2c-0.2,0-0.4,0.2-0.4,0.4v1.2c0,0.2,0.2,0.4,0.4,0.4H22c0.2,0,0.4-0.2,0.4-0.4v-1.2
	C22.4,10.7,22.2,10.6,22,10.6z"/>
</svg>
