<?xml version="1.0" encoding="utf-8"?>
<!-- Generator: Adobe Illustrator 23.0.1, SVG Export Plug-In . SVG Version: 6.00 Build 0)  -->
<svg version="1.1" id="Layer_1" xmlns="http://www.w3.org/2000/svg" xmlns:xlink="http://www.w3.org/1999/xlink" x="0px" y="0px"
	 viewBox="0 0 32.9 32.9" style="enable-background:new 0 0 32.9 32.9;" xml:space="preserve">
<style type="text/css">
	.st0{fill:#E9BEC4;stroke:#774149;stroke-width:0.5;stroke-miterlimit:10;}
	.st1{fill:#FFFFFF;stroke:#774149;stroke-width:0.5;stroke-miterlimit:10;}
</style>
<title>twitter</title>
<path class="st0" d="M16.5,0.3C7.5,0.3,0.3,7.5,0.3,16.5s7.3,16.2,16.2,16.2s16.2-7.3,16.2-16.2c0,0,0,0,0,0
	C32.7,7.5,25.4,0.3,16.5,0.3z"/>
<path class="st1" d="M22.8,13.3c0,0.1,0,0.3,0,0.4c0,5.3-4.3,9.6-9.6,9.6c-1.8,0-3.6-0.5-5.2-1.5c0.3,0,0.5,0,0.8,0
	c1.5,0,3-0.5,4.2-1.4c-1.4,0-2.7-1-3.1-2.3c0.2,0,0.4,0.1,0.6,0.1c0.3,0,0.6,0,0.9-0.1c-1.6-0.3-2.7-1.7-2.7-3.3v0
	c0.5,0.3,1,0.4,1.5,0.4c-1.5-1-1.9-3-1-4.5c1.7,2.1,4.2,3.4,6.9,3.5C16,13.9,16,13.6,16,13.4c0-1.9,1.5-3.4,3.4-3.4
	c0.9,0,1.8,0.4,2.5,1.1c0.8-0.1,1.5-0.4,2.1-0.8c-0.3,0.8-0.8,1.4-1.5,1.9c0.7-0.1,1.3-0.3,1.9-0.5C24,12.3,23.4,12.9,22.8,13.3
	L22.8,13.3z"/>
</svg>
