<svg id="Layer_1" data-name="Layer 1" xmlns="http://www.w3.org/2000/svg" viewBox="0 0 428.458 23.624"><defs><style>.cls-1{fill:#4c2121;}</style></defs><title>aboutbackground</title><path class="cls-1" d="M428.166,0H.322L0,8.294s.294,1.827,5.775,6.091,30.451.3,35.324-1.523,14.007-8.526,21.62-.609,13.094,17.357,23.752,6.4,15.53-14.89,20.1-6.836,18.32,4.736,21.188,0,7.741-5.04,9.873-2.3,22.534,12.212,41.109,2.3S206.45,8.9,209.8,10.426s8.527,6.731,16.749,1.386S256.7,13.471,256.7,13.471s16.139,4.263,24.97,3.959,14.007-2.4,17.966-5.618,15.226-6.227,19.185,0,21.011,9.577,27.406,3.486S363.579.073,370.888,9.817s13.7,11.876,17.357,5.481S397.076.986,399.512,7.685s12.837,3.959,13.422.305S420.042.8,420.7,4.414s1.888,7.713,2.708,8.37,4.1,1.969,4.76-2.134A52.967,52.967,0,0,0,428.166,0Z"/></svg>