<?xml version="1.0" encoding="utf-8"?>
<!-- Generator: Adobe Illustrator 23.0.1, SVG Export Plug-In . SVG Version: 6.00 Build 0)  -->
<svg version="1.1" id="Layer_1" xmlns="http://www.w3.org/2000/svg" xmlns:xlink="http://www.w3.org/1999/xlink" x="0px" y="0px"
	 viewBox="0 0 34.24 33.98" style="enable-background:new 0 0 34.24 33.98;" xml:space="preserve">
<style type="text/css">
	.st0{fill:#E8BEC4;stroke:#78424A;stroke-width:0.5;stroke-miterlimit:10;}
	.st1{fill:#FFFFFF;stroke:#78424A;stroke-width:0.5;stroke-miterlimit:10;}
</style>
<path class="st0" d="M17.14,0.81c-8.95,0-16.2,7.25-16.2,16.2s7.25,16.2,16.2,16.2s16.2-7.25,16.2-16.2c0,0,0,0,0,0
	C33.34,8.06,26.08,0.81,17.14,0.81z"/>
<path class="st1" d="M5.66,23.34c0,0,1.66-0.1,2.63,1.01c0.98,1.11,1.4,2.21,2.83,2.28c1.43,0.07,1.98-0.33,2.18-0.52
	s0-1.37,0.85-1.89c0,0-5.59-0.12-6.73-5.24c-1.14-5.12,1.14-6.83,1.14-6.83S7.98,9.07,8.84,8.02c0.85-1.04,4.36,1.47,4.36,1.47
	s4.79-1.19,8.3-0.05c0,0,2.66-2.21,4.22-1.68c1.57,0.54,0.43,4.33,0.43,4.33s5.07,6.73-3.04,11.76c-0.32,0.06-0.67,0.1-1.03,0.14
	c-0.53,0.06-1.03,0.08-1.49,0.09c0.09,0.1,0.19,0.21,0.28,0.34c0.37,0.52,0.51,1.05,0.57,1.42c0.13,2.61,0.27,4.52,0.3,5.12
	c0.03,0.44,0.04,0.81,0.29,1.14c0.07,0.09,0.11,0.13,0.11,0.19c0,0.43-1.78,0.75-2,0.79c-0.86,0.15-1.6,0.18-3.01,0.11
	c-3.46-0.15-3.8-0.49-3.91-0.75c-0.13-0.3,0.02-0.52,0.16-1.14c0.16-0.66,0.25-1.62-0.09-2.9c0,0-3.17,0.6-4.8-0.76
	c0,0-0.8-0.83-1.13-2.03c0,0-0.6-1.13-1.71-1.63c-0.15-0.07-0.51-0.24-0.49-0.41C5.18,23.47,5.44,23.39,5.66,23.34z"/>
</svg>
