<?xml version="1.0" encoding="utf-8"?>
<!-- Generator: Adobe Illustrator 23.0.1, SVG Export Plug-In . SVG Version: 6.00 Build 0)  -->
<svg version="1.1" id="Layer_1" xmlns="http://www.w3.org/2000/svg" xmlns:xlink="http://www.w3.org/1999/xlink" x="0px" y="0px"
	 viewBox="0 0 32.9 32.9" style="enable-background:new 0 0 32.9 32.9;" xml:space="preserve">
<style type="text/css">
	.st0{fill:#E9BEC4;stroke:#774149;stroke-width:0.5;stroke-miterlimit:10;}
	.st1{fill:#FFFFFF;stroke:#774149;stroke-width:0.5;stroke-miterlimit:10;}
</style>
<title>Tumblr</title>
<path class="st0" d="M16.5,0.3C7.5,0.3,0.3,7.5,0.3,16.5s7.3,16.2,16.2,16.2s16.2-7.3,16.2-16.2c0,0,0,0,0,0
	C32.7,7.5,25.4,0.3,16.5,0.3z"/>
<path class="st1" d="M20.2,16.2h-2.8v2.6c0,0.4,0,0.8,0.1,1.2c0.1,0.2,0.2,0.4,0.4,0.5c0.3,0.2,0.6,0.2,0.9,0.2
	c0.5,0,1.1-0.1,1.5-0.4V22c-0.4,0.2-0.9,0.3-1.3,0.5c-0.4,0.1-0.8,0.1-1.3,0.1c-0.4,0-0.8-0.1-1.2-0.2c-0.4-0.1-0.7-0.3-1-0.6
	c-0.3-0.2-0.5-0.5-0.6-0.8c-0.1-0.4-0.2-0.8-0.2-1.2v-4h-1.5v-1.6c0.5-0.1,0.9-0.3,1.3-0.6c0.3-0.3,0.6-0.6,0.8-1
	c0.2-0.5,0.4-0.9,0.4-1.4h1.8V14h2.8L20.2,16.2L20.2,16.2z"/>
</svg>
